<?xml version="1.0" standalone="no"?>
<!DOCTYPE svg PUBLIC "-//W3C//DTD SVG 20010904//EN"
 "http://www.w3.org/TR/2001/REC-SVG-20010904/DTD/svg10.dtd">
<svg version="1.0" xmlns="http://www.w3.org/2000/svg"
 width="7009.000000pt" height="1180.000000pt" viewBox="0 0 7009.000000 1180.000000"
 preserveAspectRatio="xMidYMid meet">

<g transform="translate(0.000000,1180.000000) scale(0.100000,-0.100000)"
fill="#000000" stroke="none">
<path d="M7755 11509 c-22 -4 -75 -21 -118 -38 -148 -57 -115 -55 -974 -35
-433 10 -896 19 -1028 19 -276 0 -258 4 -509 -111 -208 -95 -221 -102 -239
-133 -23 -40 -21 -73 8 -131 51 -100 55 -141 53 -465 l-3 -300 47 -205 c65
-286 70 -319 70 -455 l0 -120 -120 -475 c-66 -261 -181 -707 -255 -990 -74
-283 -137 -527 -141 -542 -3 -15 -13 -34 -22 -42 -22 -22 -76 -20 -107 4 -30
24 -39 49 -67 189 -28 138 -65 251 -170 521 -48 124 -104 279 -125 345 -76
251 -106 337 -175 501 -215 508 -244 597 -290 869 -46 274 -98 463 -192 700
-86 217 -256 534 -327 608 -74 79 -81 80 -406 88 -159 4 -625 10 -1035 14
-573 6 -755 5 -790 -5 -58 -16 -114 -72 -130 -130 -7 -25 -10 -75 -8 -112 3
-58 8 -72 33 -99 17 -17 46 -39 67 -50 45 -23 75 -61 87 -108 54 -221 56 -241
55 -451 0 -183 -4 -232 -37 -450 -20 -135 -41 -326 -48 -425 -16 -262 -16
-799 0 -1545 22 -1010 -3 -1450 -115 -2049 -19 -102 -73 -409 -120 -681 -123
-715 -131 -759 -176 -935 -22 -88 -96 -330 -164 -538 -225 -683 -281 -930
-272 -1190 3 -104 8 -130 29 -177 49 -106 110 -152 256 -192 74 -21 93 -22
353 -18 151 2 394 4 540 4 256 0 269 -1 385 -28 161 -38 236 -46 308 -35 161
26 252 132 346 402 64 184 50 244 -78 331 -92 61 -106 90 -115 236 -22 334
-102 763 -232 1236 -96 349 -112 446 -134 794 -15 249 -37 453 -60 567 -11 54
-54 197 -95 318 -41 121 -80 243 -86 270 -7 30 -13 172 -15 350 -3 315 -12
490 -44 870 -52 601 -60 703 -71 890 -13 224 -5 867 11 925 5 19 21 49 35 65
l25 30 20 -25 c33 -42 117 -219 145 -310 14 -47 53 -220 86 -385 172 -857 338
-1426 684 -2350 274 -732 357 -977 480 -1410 99 -347 157 -515 347 -989 246
-614 318 -825 383 -1126 33 -152 59 -208 106 -234 74 -40 176 6 197 90 6 21
11 129 11 240 0 314 36 622 127 1089 34 174 68 308 163 640 132 463 172 637
211 920 38 268 85 463 220 900 89 289 142 483 176 638 43 203 90 360 180 596
189 498 249 693 278 900 19 134 33 165 81 181 50 17 79 -4 100 -72 41 -130 46
-163 55 -333 8 -154 17 -215 59 -420 52 -250 88 -455 117 -660 15 -105 18
-250 22 -1195 4 -1090 -3 -1493 -34 -1870 -44 -563 -135 -1049 -279 -1500 -73
-226 -71 -355 7 -504 42 -79 155 -192 235 -234 80 -42 198 -72 283 -72 78 0
320 23 820 80 654 73 1011 94 1370 80 107 -4 227 -4 265 1 293 33 367 223 199
515 -248 432 -363 814 -433 1449 -66 585 -80 894 -91 1890 -10 897 -10 916
-76 1615 -54 583 -73 841 -84 1160 -6 162 -15 421 -20 575 -18 513 -69 932
-151 1257 -42 169 -21 250 94 351 98 87 115 104 158 170 51 78 79 166 86 262
4 71 2 85 -19 124 -36 66 -108 97 -193 80z"/>
<path d="M46587 11064 c-3 -3 -495 -7 -1094 -9 -967 -2 -1099 -5 -1188 -20
-118 -20 -284 -73 -367 -117 -61 -33 -118 -88 -118 -114 0 -9 16 -48 35 -88
51 -105 59 -175 44 -389 -14 -193 -13 -204 35 -454 61 -315 79 -604 53 -824
-18 -145 -115 -550 -187 -779 -79 -250 -117 -384 -211 -759 -97 -390 -104
-405 -168 -399 -49 4 -65 32 -111 193 -59 204 -124 392 -271 788 -73 194 -167
454 -209 578 -43 124 -110 299 -148 390 -108 255 -134 348 -147 529 -25 336
-146 664 -410 1110 -97 164 -120 191 -184 223 l-46 22 -1048 3 c-1013 2 -1049
2 -1091 -17 -78 -34 -121 -119 -114 -222 6 -77 27 -106 112 -147 88 -42 99
-66 122 -272 21 -188 15 -427 -18 -745 -21 -203 -22 -266 -28 -1875 -6 -1475
-8 -1673 -22 -1735 -9 -38 -37 -158 -63 -265 -42 -178 -55 -251 -85 -500 -6
-47 -33 -172 -61 -278 -67 -258 -79 -333 -79 -489 0 -199 -17 -270 -127 -528
-121 -282 -201 -546 -332 -1090 -45 -187 -98 -401 -118 -475 -51 -193 -41
-246 63 -346 100 -96 227 -145 429 -164 65 -6 306 -9 590 -8 522 3 561 0 763
-58 125 -36 165 -30 223 33 35 37 54 75 85 175 30 94 65 169 118 247 28 41 36
63 36 97 0 61 -16 89 -71 125 -59 38 -101 84 -134 149 -31 61 -41 105 -60 271
-33 280 -85 568 -165 914 -97 419 -147 708 -210 1206 -22 173 -65 486 -95 695
-184 1248 -202 1461 -235 2733 -15 576 -15 577 15 606 13 14 31 25 39 25 21 0
105 -175 144 -300 38 -120 50 -172 118 -503 155 -766 457 -1749 862 -2807 223
-584 270 -724 358 -1078 64 -259 141 -489 261 -786 47 -116 126 -309 175 -430
109 -268 176 -468 228 -673 22 -86 50 -171 61 -190 35 -56 97 -77 154 -51 45
20 54 55 65 231 18 301 75 780 125 1054 41 219 72 348 152 632 95 335 144 545
188 808 58 338 96 489 310 1218 67 227 128 466 161 630 33 165 84 336 166 560
38 105 94 256 123 336 72 194 130 390 155 519 38 192 49 214 112 208 31 -3 36
-9 78 -92 l45 -90 1 -210 1 -211 56 -285 c60 -303 99 -538 117 -710 14 -132
14 -2233 0 -2600 -30 -783 -114 -1313 -293 -1848 -58 -176 -62 -192 -61 -277
2 -242 177 -457 425 -521 88 -23 268 -14 664 31 588 67 840 94 990 107 204 17
715 16 885 0 153 -16 198 -9 250 34 47 40 61 78 71 188 15 177 3 231 -100 446
-228 475 -326 841 -351 1310 -11 194 -27 461 -55 878 -10 147 -15 397 -15 772
0 578 -4 665 -45 967 -34 250 -59 508 -95 978 -17 220 -40 497 -50 615 -21
230 -33 465 -50 950 -17 480 -39 718 -94 1007 -39 206 -50 339 -37 442 24 188
89 305 244 436 64 54 93 100 103 163 12 74 -36 160 -103 188 -33 14 -233 20
-246 8z"/>
<path d="M18495 10730 c-150 -13 -338 -46 -389 -69 -99 -43 -165 -133 -173
-235 -5 -60 -3 -68 60 -208 155 -340 230 -663 257 -1092 13 -199 8 -387 -30
-1231 -37 -816 -41 -965 -50 -2170 -13 -1677 -36 -2320 -110 -3130 -49 -527
-53 -550 -159 -843 -60 -165 -53 -257 21 -302 61 -37 83 -29 191 67 92 81 -53
76 1797 64 943 -6 1675 -14 1715 -20 399 -55 513 -65 745 -65 205 0 248 3 337
22 55 12 116 22 135 22 53 -1 118 -36 189 -106 89 -85 111 -85 172 -2 15 21
72 69 127 108 192 136 205 204 68 346 l-69 72 1 1187 c0 685 5 1205 10 1229 5
23 20 67 34 98 62 139 73 288 42 543 -24 190 -66 260 -156 260 -54 0 -76 -26
-93 -105 -16 -73 -53 -151 -170 -355 -367 -640 -840 -1267 -1591 -2110 -98
-110 -247 -286 -331 -391 -265 -332 -309 -370 -417 -362 -82 6 -105 29 -99
101 3 29 5 97 5 152 1 117 -17 177 -121 418 -96 220 -98 236 -74 546 47 595
52 958 16 1246 -43 356 -47 408 -52 804 -6 444 -3 480 48 551 45 62 101 84
203 77 72 -4 147 -27 651 -195 667 -223 1177 -385 1263 -402 106 -21 194 6
227 71 28 54 21 134 -25 276 -90 277 -100 376 -100 1024 0 536 -3 581 -46 656
-41 71 -150 133 -236 133 -56 0 -153 -42 -272 -119 -67 -43 -198 -128 -293
-189 -403 -260 -753 -459 -1215 -693 -71 -36 -154 -14 -192 51 -19 33 -19 34
-1 124 18 85 19 144 20 856 1 721 2 776 23 955 34 293 44 676 34 1260 -7 373
-6 517 2 535 14 31 77 54 125 45 58 -11 96 -59 111 -140 50 -272 187 -450 535
-697 66 -47 157 -119 203 -159 174 -152 209 -198 758 -1029 364 -552 661 -854
1021 -1041 114 -60 165 -65 212 -21 37 34 107 190 126 280 16 76 7 134 -38
253 -62 162 -56 394 18 700 30 125 31 181 5 291 -39 168 -50 302 -61 765 -9
405 -9 455 6 482 24 48 61 61 170 61 145 0 196 31 197 120 0 48 -23 85 -69
113 -17 9 -104 44 -194 77 -190 70 -365 154 -495 238 -120 77 -211 107 -324
107 -81 -1 -90 -3 -195 -52 -286 -134 -422 -133 -1420 7 -643 90 -654 91
-1245 100 -341 5 -583 14 -690 24 -208 20 -541 28 -685 16z"/>
<path d="M26435 10454 c-191 -12 -472 -61 -732 -129 -284 -73 -374 -145 -405
-323 -21 -127 14 -371 102 -707 55 -209 60 -253 70 -565 6 -186 15 -298 25
-345 73 -318 78 -385 72 -862 -3 -301 -10 -435 -27 -598 -25 -239 -24 -458 4
-705 44 -405 55 -912 35 -1666 -8 -297 -14 -687 -14 -869 1 -358 11 -468 60
-655 46 -174 57 -233 50 -280 -12 -78 -43 -125 -128 -195 -111 -90 -138 -176
-107 -338 29 -153 40 -266 40 -428 0 -153 8 -198 44 -237 58 -65 105 -72 551
-82 209 -4 444 -14 521 -21 130 -12 164 -11 409 10 488 43 660 18 871 -123 76
-51 83 -52 201 -31 45 8 177 19 293 25 226 11 291 18 440 49 419 86 880 94
1429 25 334 -42 373 -34 421 81 23 55 25 73 25 220 0 88 -4 320 -9 515 -12
479 -7 528 100 1012 99 447 124 646 124 973 0 269 -18 356 -173 855 -24 80
-52 181 -61 225 -29 134 -38 158 -69 173 -40 19 -90 8 -134 -31 -37 -32 -613
-796 -825 -1093 -63 -89 -175 -254 -249 -368 -208 -323 -414 -622 -761 -1109
-175 -246 -362 -512 -414 -590 -115 -172 -140 -197 -193 -197 -78 0 -121 61
-127 184 -14 268 -28 459 -49 676 -58 587 -55 442 -56 2765 -1 2394 -7 2166
71 2819 22 181 47 424 55 540 32 444 37 458 281 869 68 114 129 225 135 247
15 49 1 104 -37 149 -47 56 -74 59 -574 64 -449 5 -589 13 -870 51 -115 16
-321 26 -415 20z"/>
<path d="M11120 10320 c-247 -9 -316 -26 -373 -89 -53 -58 -63 -121 -48 -291
21 -253 9 -2094 -21 -2965 -7 -203 -12 -550 -12 -770 1 -507 13 -726 94 -1710
21 -264 46 -574 55 -690 19 -252 34 -358 85 -618 75 -371 150 -583 291 -814
163 -268 452 -521 745 -654 281 -127 510 -183 1044 -254 309 -42 395 -55 585
-94 207 -43 311 -54 500 -54 344 1 646 75 974 239 217 108 462 271 623 413 60
53 98 129 98 195 0 85 26 177 89 325 143 335 217 653 276 1181 9 80 28 240 43
355 25 198 27 234 26 610 0 321 -5 457 -23 690 -28 362 -38 845 -22 1095 52
819 145 1662 268 2430 58 362 51 507 -32 720 -58 148 -57 201 10 375 32 83 36
162 10 201 -9 14 -38 36 -63 47 -53 24 -91 25 -647 17 -302 -5 -359 0 -540 47
-97 26 -104 26 -240 16 -164 -13 -233 -34 -287 -90 -47 -48 -58 -79 -58 -156
0 -84 11 -119 135 -442 509 -1328 743 -2136 905 -3118 22 -136 59 -343 81
-460 136 -725 171 -1098 139 -1465 -8 -89 -7 -137 5 -228 49 -375 -6 -745
-217 -1459 -105 -355 -155 -461 -268 -569 -83 -79 -171 -118 -350 -155 -378
-78 -777 -82 -1055 -11 -452 115 -722 427 -861 995 -59 242 -84 459 -114 991
-11 199 -27 426 -35 505 -40 402 -44 880 -14 1918 10 357 10 514 0 805 -16
447 -11 535 63 1191 14 121 32 303 41 405 27 308 74 494 172 682 57 107 160
247 202 271 69 40 91 66 91 109 0 32 -7 47 -33 73 -39 39 -76 50 -217 65 -150
15 -284 35 -620 90 -331 54 -487 75 -670 89 -186 15 -597 20 -830 11z"/>
<path d="M49435 10230 c-217 -10 -290 -28 -347 -87 -79 -83 -73 -7 -76 -953
-1 -465 2 -1666 7 -2670 10 -1940 8 -1862 61 -2345 36 -327 149 -1144 176
-1275 127 -615 488 -1069 1024 -1285 189 -76 437 -134 1304 -305 539 -106 600
-113 856 -107 334 9 540 65 850 232 443 238 646 416 784 686 131 257 319 1068
370 1599 49 507 47 1130 -5 1705 -26 279 -22 558 11 880 18 165 23 286 25 565
3 404 6 434 90 860 98 498 127 750 127 1095 1 167 -5 286 -21 434 -22 219 -27
465 -11 591 19 143 -16 223 -113 257 -67 23 -272 23 -440 0 -141 -20 -292 -22
-367 -4 -30 8 -107 35 -170 60 -148 60 -283 84 -376 69 -132 -22 -240 -96
-291 -201 -23 -47 -28 -69 -28 -136 0 -103 22 -173 130 -415 508 -1143 845
-2409 1094 -4120 87 -595 107 -1000 70 -1455 -40 -505 -167 -1028 -349 -1438
-68 -151 -105 -209 -182 -282 -108 -102 -190 -132 -498 -180 -162 -26 -535
-31 -684 -11 -324 46 -557 146 -723 313 -224 223 -388 686 -447 1263 -54 521
-103 2734 -77 3480 35 999 132 1876 256 2306 74 257 129 368 209 418 63 40
126 99 126 119 0 46 -129 131 -246 162 -32 9 -127 20 -211 25 -93 6 -192 19
-260 34 -218 50 -401 78 -663 102 -198 18 -735 25 -985 14z"/>
<path d="M57370 9499 c-179 -19 -281 -70 -329 -164 -23 -43 -26 -62 -26 -145
1 -117 23 -199 139 -523 136 -377 163 -521 146 -792 -14 -230 -28 -608 -45
-1185 -14 -489 -21 -656 -45 -1160 -16 -348 -21 -646 -30 -1840 -5 -646 -14
-1260 -20 -1365 -37 -703 -95 -1209 -195 -1723 -39 -204 -44 -238 -34 -277 15
-58 49 -90 98 -90 32 0 47 9 96 53 32 29 81 65 109 80 l51 27 1090 -1 c655 0
1212 -5 1395 -12 606 -24 976 -51 1275 -94 307 -44 482 -44 645 -3 140 36 256
40 310 11 19 -10 61 -43 92 -72 67 -64 108 -72 132 -26 23 44 86 97 161 138
104 56 161 100 180 140 23 49 12 71 -64 130 -34 26 -67 57 -75 69 -34 52 -37
171 -33 1300 4 1210 2 1179 63 1411 15 61 24 122 24 172 0 97 -54 427 -76 460
-8 13 -31 30 -50 38 -61 25 -78 8 -151 -151 -127 -275 -222 -464 -266 -533
-57 -88 -364 -500 -612 -822 -446 -579 -871 -1093 -1302 -1576 -157 -176 -197
-208 -279 -221 -77 -13 -104 41 -173 333 -63 264 -94 418 -123 614 -20 134
-23 194 -23 445 0 266 2 301 25 420 29 157 29 174 2 295 -39 177 -52 349 -62
780 -5 228 -14 480 -20 560 -14 172 -5 248 38 324 61 106 192 134 393 82 52
-14 335 -106 629 -206 1002 -340 1065 -360 1159 -360 109 0 168 29 197 97 21
48 18 71 -25 200 -87 259 -93 331 -96 1023 -3 571 -3 586 -24 641 -15 39 -37
71 -71 103 -71 66 -128 90 -220 90 -94 1 -164 -30 -295 -129 -174 -133 -542
-364 -881 -553 -252 -140 -618 -329 -663 -343 -46 -14 -77 -1 -92 38 -16 42
-33 601 -33 1098 -1 471 4 563 44 840 34 232 40 379 40 974 1 640 8 837 34
876 22 34 88 51 139 35 46 -13 74 -54 82 -120 29 -214 118 -388 274 -532 34
-32 133 -112 219 -177 390 -296 586 -527 987 -1161 238 -376 431 -646 531
-745 65 -63 128 -101 291 -174 147 -66 230 -119 285 -181 31 -34 42 -40 60
-34 67 21 119 92 158 219 32 105 31 205 -5 340 -36 138 -40 275 -10 445 26
153 27 571 2 867 -39 454 -40 830 -1 909 28 58 86 84 186 84 124 0 176 32 185
114 8 70 -18 89 -237 175 -208 81 -472 207 -570 272 -126 82 -250 115 -363 98
-31 -5 -97 -28 -145 -50 -48 -23 -130 -53 -182 -67 -86 -23 -113 -25 -285 -25
-198 0 -241 4 -780 78 -934 128 -942 129 -1455 131 -234 0 -648 4 -920 7 -289
3 -530 2 -580 -4z"/>
<path d="M65550 9139 c-170 -10 -330 -34 -485 -74 -304 -78 -460 -168 -523
-303 -24 -51 -27 -68 -27 -167 0 -100 5 -125 48 -281 87 -311 121 -509 182
-1064 20 -179 47 -406 61 -505 23 -158 25 -202 21 -360 -7 -217 -21 -467 -44
-750 -23 -296 -22 -551 5 -745 55 -397 77 -805 68 -1275 -6 -365 -15 -528 -46
-835 -29 -293 -34 -429 -21 -569 12 -117 21 -162 87 -408 36 -137 43 -304 16
-389 -27 -85 -85 -168 -158 -225 -98 -77 -110 -135 -57 -274 50 -130 67 -224
66 -365 -1 -69 -6 -147 -11 -175 -13 -63 0 -124 34 -156 22 -21 38 -24 162
-30 75 -4 209 -17 297 -28 229 -29 355 -34 560 -22 531 32 646 35 804 23 235
-18 444 -68 582 -138 l52 -26 196 12 c288 16 400 28 561 60 257 51 372 62 713
67 246 4 379 1 590 -13 149 -10 331 -19 402 -19 159 0 192 12 227 83 22 46 23
52 18 272 -3 124 -5 398 -4 610 0 418 6 486 64 785 41 208 57 322 74 525 43
510 32 682 -83 1270 -27 140 -57 305 -65 365 -15 100 -19 113 -46 138 -35 31
-84 36 -130 12 -19 -10 -154 -181 -383 -488 -425 -567 -548 -740 -758 -1063
-235 -362 -371 -558 -894 -1289 -149 -209 -291 -409 -314 -445 -74 -111 -119
-133 -188 -90 -43 26 -59 61 -87 188 -19 83 -26 150 -30 302 -32 1038 -39
1346 -39 1875 -1 761 21 3704 28 3765 2 25 9 126 15 225 31 511 79 827 166
1090 43 131 133 325 198 424 126 195 140 298 52 385 -61 61 -114 73 -255 55
-149 -19 -420 -14 -655 10 -110 12 -245 23 -300 26 -202 9 -624 12 -746 4z"/>
</g>
</svg>
